<svg width="205" height="141" viewBox="0 0 205 141" fill="none" xmlns="http://www.w3.org/2000/svg">
<path d="M85.148 64.968C84.092 64.968 83.1827 64.7773 82.42 64.396C81.9507 64.132 81.716 63.824 81.716 63.472C81.716 63.12 81.804 62.8413 81.98 62.636C82.156 62.4013 82.4053 62.284 82.728 62.284C83.0213 62.284 83.4467 62.4013 84.004 62.636C84.62 62.8707 85.0013 62.988 85.148 62.988C85.7053 62.988 86.204 62.7533 86.644 62.284C87.1133 61.7853 87.48 61.14 87.744 60.348C88.272 58.8813 88.536 57.5613 88.536 56.388C88.536 55.1267 88.3307 53.8067 87.92 52.428C87.5387 51.02 87.0107 49.656 86.336 48.336L85.632 46.928C84.8987 45.4613 84.3267 44.3027 83.916 43.452C83.5347 42.6013 83.1973 41.6773 82.904 40.68C82.464 39.272 82.244 37.908 82.244 36.588C82.244 35.532 82.42 34.5347 82.772 33.596C83.1533 32.6573 83.7107 31.8653 84.444 31.22C85.1773 30.516 86.0867 30.164 87.172 30.164C87.7 30.164 88.2133 30.3253 88.712 30.648C89.2107 30.9413 89.5627 31.3227 89.768 31.792L89.02 32.716C88.2573 32.716 87.6853 32.5693 87.304 32.276C86.776 32.3347 86.3067 32.5987 85.896 33.068C85.5147 33.508 85.2213 34.0213 85.016 34.608C84.84 35.1653 84.752 35.7227 84.752 36.28C84.752 37.3947 84.8987 38.5387 85.192 39.712C85.5147 40.856 85.9253 41.9413 86.424 42.968L89.504 49.128C90.0027 50.184 90.3987 51.372 90.692 52.692C90.9853 54.012 91.132 55.332 91.132 56.652C91.132 58.588 90.6627 60.4067 89.724 62.108C89.2253 62.988 88.58 63.6773 87.788 64.176C86.996 64.704 86.116 64.968 85.148 64.968ZM104.844 64.396C104.17 64.396 103.671 64.2933 103.348 64.088C103.026 63.8827 102.864 63.5013 102.864 62.944C102.864 62.064 102.718 60.568 102.424 58.456L102.248 57.532L97.8922 56.872C97.7162 57.5467 97.4669 58.9107 97.1442 60.964C96.9682 62.4013 96.6895 63.3547 96.3082 63.824C96.1029 64.088 95.8095 64.22 95.4282 64.22C95.0762 64.22 94.7535 64.1173 94.4602 63.912C94.1669 63.6773 94.0202 63.3987 94.0202 63.076L94.1082 62.856L94.1522 62.68C96.0882 55.1413 97.5549 47.7053 98.5522 40.372C98.5522 40.2547 98.5669 40.064 98.5962 39.8C98.6255 39.5067 98.6549 39.096 98.6842 38.568C98.7722 37.4827 98.8602 36.6173 98.9482 35.972C99.0655 35.3267 99.2415 34.8427 99.4762 34.52H100.972C101.383 34.52 101.735 34.6227 102.028 34.828C102.322 35.004 102.468 35.268 102.468 35.62C102.468 37.8493 102.776 41.164 103.392 45.564C103.979 50.0813 104.272 53.2493 104.272 55.068C104.272 55.244 104.346 55.6987 104.492 56.432C104.639 57.1067 104.712 57.5467 104.712 57.752C104.712 57.9573 104.859 58.8373 105.152 60.392C105.416 61.8 105.548 62.7093 105.548 63.12V63.164C105.548 63.8093 105.314 64.22 104.844 64.396ZM101.94 55.948C101.852 55.508 101.808 54.9653 101.808 54.32C101.808 51.68 101.574 48.3067 101.104 44.2L100.664 39.624C99.4029 46.5173 98.5375 51.724 98.0682 55.244C98.5082 55.5373 99.7989 55.772 101.94 55.948ZM112.933 64.616C112.434 64.616 112.023 64.2933 111.701 63.648C112.023 63.032 112.185 60.5387 112.185 56.168C112.185 55.1413 112.111 54.0267 111.965 52.824L111.833 51.548C111.745 50.756 111.701 50.1547 111.701 49.744V48.6C111.407 47.8667 110.865 46.5027 110.073 44.508C109.31 42.5133 108.694 40.8413 108.225 39.492C107.667 37.9373 107.389 36.8813 107.389 36.324V36.104L108.401 35.356C108.899 35.4147 109.427 36.06 109.985 37.292C110.454 38.3773 110.967 39.932 111.525 41.956C112.111 43.98 112.405 45.0507 112.405 45.168C112.522 44.8453 112.757 43.7453 113.109 41.868C113.461 39.9907 113.857 38.3333 114.297 36.896C114.795 35.4587 115.309 34.74 115.837 34.74C116.13 34.74 116.379 34.828 116.585 35.004C116.819 35.18 116.937 35.4 116.937 35.664C116.937 37.16 116.526 39.272 115.705 42C114.825 44.9627 114.385 47.104 114.385 48.424V61.668C114.385 63.6333 113.901 64.616 112.933 64.616ZM123.81 64.572C123.428 64.572 123.076 64.44 122.754 64.176C122.46 63.912 122.299 63.5893 122.27 63.208V62.064V61.184C122.24 60.92 122.226 60.612 122.226 60.26C122.226 59.644 122.182 58.7053 122.094 57.444L122.006 54.628C122.006 53.1907 122.05 51.0493 122.138 48.204C122.255 45.652 122.314 43.5107 122.314 41.78C122.314 41.3693 122.27 40.7533 122.182 39.932C122.094 39.0813 122.05 38.4653 122.05 38.084C122.05 36.0013 122.666 34.96 123.898 34.96C124.866 34.96 125.98 35.1507 127.242 35.532C128.532 35.9133 129.178 36.368 129.178 36.896C129.178 37.1893 129.046 37.468 128.782 37.732C128.547 37.9667 128.254 38.1573 127.902 38.304C126.67 37.864 125.555 37.5707 124.558 37.424C124.587 37.864 124.602 38.4947 124.602 39.316C124.602 40.4893 124.587 41.5453 124.558 42.484C124.47 43.892 124.426 44.948 124.426 45.652L124.558 46.356L125.262 46.312C125.496 46.2827 125.79 46.268 126.142 46.268C127.55 46.268 128.254 46.6787 128.254 47.5C128.254 47.8227 128.122 48.1013 127.858 48.336C127.594 48.5413 127.256 48.644 126.846 48.644C126.318 48.644 125.907 48.6147 125.614 48.556H124.514C124.572 49.3187 124.602 50.4333 124.602 51.9C124.602 53.3667 124.587 54.6867 124.558 55.86C124.47 57.6493 124.426 58.984 124.426 59.864C124.426 61.5067 124.455 62.328 124.514 62.328L125.966 62.284C126.464 62.2547 127.066 62.24 127.77 62.24C128.884 62.24 129.442 62.592 129.442 63.296C129.442 63.7067 129.251 64.0147 128.87 64.22C128.518 64.4547 128.078 64.572 127.55 64.572H123.81ZM135.697 64.264C134.935 64.264 134.553 62.3427 134.553 58.5L134.641 51.548C134.671 49.4947 134.685 47.192 134.685 44.64C134.685 43.7013 134.597 42.2493 134.421 40.284C134.275 38.1427 134.201 36.8373 134.201 36.368C134.201 35.9867 134.363 35.6493 134.685 35.356C135.008 35.0627 135.36 34.916 135.741 34.916C136.768 34.916 137.751 35.1507 138.689 35.62C139.657 36.06 140.508 36.6907 141.241 37.512C142.796 39.3013 143.823 41.2667 144.321 43.408C144.585 44.4933 144.717 45.564 144.717 46.62C144.717 47.0013 144.703 47.3533 144.673 47.676L144.629 48.864V51.284C144.629 53.1613 144.571 54.6427 144.453 55.728C144.277 57.1947 143.94 58.5 143.441 59.644C142.855 60.876 142.004 61.976 140.889 62.944C140.361 63.384 139.687 63.824 138.865 64.264H135.697ZM137.633 62.02C138.22 62.02 138.763 61.8733 139.261 61.58C139.76 61.2573 140.185 60.832 140.537 60.304C140.831 59.8347 141.095 59.248 141.329 58.544C141.593 57.8107 141.784 57.1067 141.901 56.432C142.165 55.112 142.327 53.7627 142.385 52.384C142.415 52.032 142.429 51.5187 142.429 50.844C142.429 41.9853 140.713 37.3653 137.281 36.984C137.076 38.304 136.973 39.8293 136.973 41.56C136.973 43.408 137.091 46.6347 137.325 51.24C137.531 55.3173 137.633 58.5587 137.633 60.964V62.02ZM91.352 104C90.8827 104 90.5307 103.912 90.296 103.736C90.0907 103.56 89.988 103.267 89.988 102.856V97.092C89.6067 96.828 88.888 96.5933 87.832 96.388C86.776 96.1827 85.7787 96.0507 84.84 95.992C84.5173 96.608 84.2827 97.356 84.136 98.236L83.96 99.116C83.9307 99.3213 83.8427 99.776 83.696 100.48C83.5493 101.184 83.388 101.8 83.212 102.328C83.036 102.827 82.86 103.223 82.684 103.516C81.5693 103.516 80.924 103.223 80.748 102.636C81.0707 102.167 81.4373 100.788 81.848 98.5L83.3 90.448C83.9453 86.6347 84.532 83.3787 85.06 80.68C85.6173 77.9813 86.204 75.7227 86.82 73.904C87.4947 71.88 88.14 70.868 88.756 70.868C89.372 70.868 89.8413 70.9853 90.164 71.22C90.164 72.3933 90.4427 75.224 91 79.712C91.5867 84.112 91.88 87.1187 91.88 88.732C91.88 90.2867 92.0413 92.516 92.364 95.42C92.6573 98.3827 92.804 100.744 92.804 102.504C92.804 103.501 92.32 104 91.352 104ZM89.064 94.54C89.2987 94.54 89.592 94.496 89.944 94.408C89.856 93.1173 89.7093 91.5187 89.504 89.612C88.8293 82.9827 88.492 78.92 88.492 77.424V77.072C88.1987 77.3653 87.788 78.7 87.26 81.076C86.7613 83.4227 86.292 85.9453 85.852 88.644C85.412 91.3427 85.1773 93.132 85.148 94.012C86.38 94.364 87.6853 94.54 89.064 94.54ZM108.451 104.748C107.776 104.748 107.057 104.015 106.295 102.548C105.151 100.348 104.021 96.7253 102.907 91.68C102.584 90.3013 102.32 89.0253 102.115 87.852C101.059 89.964 100.531 92.516 100.531 95.508V103.648C100.531 104.323 100.237 104.66 99.6508 104.66C99.2108 104.66 98.8441 104.528 98.5508 104.264C98.2868 104.029 98.1548 103.692 98.1548 103.252V89.92C98.1548 88.6293 98.3015 86.2533 98.5948 82.792C98.8881 79.7707 99.0348 77.3947 99.0348 75.664C99.2695 75.1067 99.6948 74.828 100.311 74.828C100.692 74.828 101.015 74.96 101.279 75.224C101.543 75.488 101.675 75.8107 101.675 76.192V76.324C101.293 76.9693 101.103 79.6387 101.103 84.332V85.916L102.731 82.704C103.728 80.6213 104.667 78.832 105.547 77.336C106.368 75.8693 106.969 75.136 107.351 75.136C107.82 75.136 108.216 75.2387 108.539 75.444C108.891 75.6493 109.067 75.9427 109.067 76.324L108.011 78.084C105.811 81.6333 104.579 83.6867 104.315 84.244C104.315 84.7427 104.3 85.1827 104.271 85.564L104.227 86.884C104.227 88.1453 104.725 90.5067 105.723 93.968C106.749 97.4 107.6 99.6733 108.275 100.788L108.847 101.58C109.404 102.343 109.683 103.017 109.683 103.604C109.683 103.927 109.551 104.191 109.287 104.396C109.052 104.631 108.773 104.748 108.451 104.748ZM121.194 104C120.196 104 119.698 101.58 119.698 96.74L119.742 94.232L119.786 92.208V92.076V91.636C119.815 91.4013 119.83 91.1227 119.83 90.8C119.83 90.7413 119.786 90.668 119.698 90.58C119.61 90.492 119.566 90.4187 119.566 90.36V90.316C119.419 90.3747 119.155 90.404 118.774 90.404C118.392 90.404 117.923 90.3453 117.366 90.228C117.19 90.1987 116.72 90.1253 115.958 90.008V95.068C115.958 95.8307 116.002 97.0333 116.09 98.676C116.178 100.289 116.222 101.492 116.222 102.284C116.222 102.724 116.104 103.105 115.87 103.428C115.635 103.751 115.327 103.912 114.946 103.912C114.388 103.912 113.992 103.369 113.758 102.284C113.523 101.169 113.406 99.7173 113.406 97.928L113.494 94.364C113.523 93.3667 113.538 92.3107 113.538 91.196V90.448V89.832C113.538 89.3627 113.523 89.0547 113.494 88.908V88.688L113.626 86.136C113.626 85.0213 113.582 83.364 113.494 81.164C113.406 78.964 113.362 77.3067 113.362 76.192C113.362 75.84 113.479 75.532 113.714 75.268C113.948 75.004 114.242 74.872 114.594 74.872C115.532 74.872 116.002 75.752 116.002 77.512L115.914 82.968C115.855 84.6107 115.826 86.444 115.826 88.468C116.266 88.6147 117.058 88.688 118.202 88.688H119.83C119.888 88.512 119.918 88.336 119.918 88.16C119.918 86.752 119.83 84.6693 119.654 81.912C119.448 79.3307 119.346 77.2333 119.346 75.62C119.346 75.2973 119.463 75.0333 119.698 74.828C119.962 74.5933 120.27 74.476 120.622 74.476C120.827 74.476 121.12 74.5493 121.502 74.696L121.898 74.872C121.898 79.0373 122.044 84.596 122.338 91.548L122.734 102.68C122.734 103.091 122.572 103.413 122.25 103.648C121.956 103.883 121.604 104 121.194 104ZM130.48 103.296L130.436 101.58C130.407 101.081 130.392 100.524 130.392 99.908L130.436 98.412C130.348 98.0893 130.128 94.8773 129.776 88.776C129.424 82.6747 129.219 78.7587 129.16 77.028C127.459 76.9693 126.373 76.7933 125.904 76.5C125.581 76.2653 125.42 76.0013 125.42 75.708C125.42 75.4733 125.567 75.268 125.86 75.092C126.183 74.8867 126.505 74.784 126.828 74.784C127.649 74.784 128.647 74.8427 129.82 74.96C130.935 75.1067 131.932 75.18 132.812 75.18H133.164H133.516C134.425 75.18 134.88 75.532 134.88 76.236C134.88 76.588 134.733 76.8813 134.44 77.116C134.147 77.3213 133.809 77.424 133.428 77.424C133.164 77.424 132.783 77.38 132.284 77.292L131.404 77.116L131.36 77.336L131.316 77.556C131.316 80.1667 131.565 84.332 132.064 90.052C132.533 95.42 132.768 99.5853 132.768 102.548C132.768 102.9 132.607 103.208 132.284 103.472C131.991 103.736 131.653 103.868 131.272 103.868L130.48 103.296ZM147.942 104.396C147.267 104.396 146.769 104.293 146.446 104.088C146.123 103.883 145.962 103.501 145.962 102.944C145.962 102.064 145.815 100.568 145.522 98.456L145.346 97.532L140.99 96.872C140.814 97.5467 140.565 98.9107 140.242 100.964C140.066 102.401 139.787 103.355 139.406 103.824C139.201 104.088 138.907 104.22 138.526 104.22C138.174 104.22 137.851 104.117 137.558 103.912C137.265 103.677 137.118 103.399 137.118 103.076L137.206 102.856L137.25 102.68C139.186 95.1413 140.653 87.7053 141.65 80.372C141.65 80.2547 141.665 80.064 141.694 79.8C141.723 79.5067 141.753 79.096 141.782 78.568C141.87 77.4827 141.958 76.6173 142.046 75.972C142.163 75.3267 142.339 74.8427 142.574 74.52H144.07C144.481 74.52 144.833 74.6227 145.126 74.828C145.419 75.004 145.566 75.268 145.566 75.62C145.566 77.8493 145.874 81.164 146.49 85.564C147.077 90.0813 147.37 93.2493 147.37 95.068C147.37 95.244 147.443 95.6987 147.59 96.432C147.737 97.1067 147.81 97.5467 147.81 97.752C147.81 97.9573 147.957 98.8373 148.25 100.392C148.514 101.8 148.646 102.709 148.646 103.12V103.164C148.646 103.809 148.411 104.22 147.942 104.396ZM145.038 95.948C144.95 95.508 144.906 94.9653 144.906 94.32C144.906 91.68 144.671 88.3067 144.202 84.2L143.762 79.624C142.501 86.5173 141.635 91.724 141.166 95.244C141.606 95.5373 142.897 95.772 145.038 95.948ZM160.122 104.748C159.477 104.748 158.89 104.044 158.362 102.636C157.746 101.111 157.292 99.5413 156.998 97.928L156.69 96.432C155.84 92.2373 155.297 89.8467 155.062 89.26H154.534C154.534 90.1107 154.52 90.888 154.49 91.592V94.012C154.49 97.9427 154.769 101.008 155.326 103.208L154.842 104.396H153.61L153.038 103.736L153.082 100.788C153.082 98.148 152.95 94.144 152.686 88.776C152.452 83.056 152.334 79.052 152.334 76.764C152.334 75.356 152.818 74.652 153.786 74.652C155.37 74.652 156.661 75.0627 157.658 75.884C158.685 76.7053 159.198 77.8493 159.198 79.316V82.396C159.198 82.836 159.125 83.3493 158.978 83.936C158.832 84.4933 158.67 84.948 158.494 85.3L157.658 86.884L156.954 88.204L157.174 89.26L157.79 92.384C158.201 94.6427 158.597 96.476 158.978 97.884C159.36 99.292 159.829 100.568 160.386 101.712L160.65 102.24C160.944 102.827 161.09 103.296 161.09 103.648C161.09 103.941 161.002 104.191 160.826 104.396C160.65 104.631 160.416 104.748 160.122 104.748ZM154.71 87.104C155.356 86.7813 155.898 85.9013 156.338 84.464C156.808 82.9973 157.042 81.648 157.042 80.416C157.042 79.4773 156.925 78.5973 156.69 77.776C156.544 77.3067 156.294 76.9547 155.942 76.72C155.62 76.456 155.209 76.324 154.71 76.324L154.622 76.544L154.534 76.94L154.622 82.132C154.681 83.6573 154.71 85.3147 154.71 87.104Z" fill="#322E2E"/>
<path d="M14.0452 55.1491L61.0379 24.3461C66.3856 20.8408 72.7755 27.0166 69.4544 32.4806L51.2529 62.4256C49.9119 64.6319 49.3182 67.2118 49.56 69.7823L52.5577 101.65C53.1355 107.791 45.1818 110.702 41.6587 105.638L12.4092 63.5937C10.4797 60.8202 11.2196 57.0013 14.0452 55.1491Z" stroke="#322E2E" stroke-width="6"/>
</svg>
